<svg width="712" height="230" viewBox="0 0 712 230" fill="none" xmlns="http://www.w3.org/2000/svg">
<path d="M4.27433 131.856C4.27433 122.876 6.2172 114.888 10.103 107.894C13.9887 100.813 19.3856 95.3301 26.2936 91.4443C33.288 87.4722 41.189 85.4861 49.9967 85.4861C60.7905 85.4861 70.0299 88.3357 77.7151 94.0348C85.4002 99.7339 90.538 107.505 93.1286 117.349H68.7778C66.9645 113.55 64.374 110.657 61.0063 108.671C57.725 106.685 53.9688 105.692 49.7376 105.692C42.916 105.692 37.3896 108.067 33.1584 112.816C28.9273 117.565 26.8117 123.912 26.8117 131.856C26.8117 139.8 28.9273 146.147 33.1584 150.896C37.3896 155.646 42.916 158.02 49.7376 158.02C53.9688 158.02 57.725 157.027 61.0063 155.041C64.374 153.055 66.9645 150.162 68.7778 146.363H93.1286C90.538 156.207 85.4002 163.978 77.7151 169.677C70.0299 175.29 60.7905 178.097 49.9967 178.097C41.189 178.097 33.288 176.154 26.2936 172.268C19.3856 168.296 13.9887 162.813 10.103 155.818C6.2172 148.824 4.27433 140.837 4.27433 131.856ZM128.841 117.22C131.432 113.248 134.67 110.139 138.555 107.894C142.441 105.563 146.759 104.397 151.508 104.397V127.841H145.42C139.894 127.841 135.749 129.05 132.986 131.468C130.223 133.799 128.841 137.944 128.841 143.902V177.449H106.692V105.174H128.841V117.22ZM157.691 141.182C157.691 133.756 159.072 127.236 161.836 121.624C164.685 116.011 168.528 111.693 173.363 108.671C178.199 105.649 183.596 104.138 189.554 104.138C194.649 104.138 199.096 105.174 202.895 107.246C206.781 109.319 209.76 112.039 211.832 115.406V105.174H233.981V177.449H211.832V167.216C209.673 170.584 206.651 173.304 202.765 175.377C198.966 177.449 194.519 178.485 189.424 178.485C183.553 178.485 178.199 176.974 173.363 173.952C168.528 170.843 164.685 166.483 161.836 160.87C159.072 155.171 157.691 148.608 157.691 141.182ZM211.832 141.311C211.832 135.785 210.278 131.424 207.169 128.229C204.147 125.034 200.434 123.437 196.03 123.437C191.626 123.437 187.87 125.034 184.761 128.229C181.739 131.338 180.228 135.656 180.228 141.182C180.228 146.708 181.739 151.112 184.761 154.394C187.87 157.588 191.626 159.186 196.03 159.186C200.434 159.186 204.147 157.588 207.169 154.394C210.278 151.199 211.832 146.838 211.832 141.311ZM286.272 123.567H274.355V177.449H252.207V123.567H244.176V105.174H252.207V103.102C252.207 94.2075 254.754 87.4722 259.849 82.8956C264.943 78.2327 272.413 75.9013 282.256 75.9013C283.897 75.9013 285.106 75.9445 285.883 76.0308V94.812C281.652 94.5529 278.673 95.1574 276.946 96.6253C275.219 98.0933 274.355 100.727 274.355 104.526V105.174H286.272V123.567ZM336.962 158.668V177.449H325.693C317.662 177.449 311.402 175.506 306.912 171.62C302.422 167.648 300.176 161.215 300.176 152.321V123.567H291.369V105.174H300.176V87.5586H322.325V105.174H336.832V123.567H322.325V152.58C322.325 154.739 322.843 156.293 323.88 157.243C324.916 158.193 326.643 158.668 329.061 158.668H336.962ZM382.198 178.485C375.118 178.485 368.728 176.974 363.028 173.952C357.416 170.93 352.969 166.612 349.687 160.999C346.492 155.387 344.895 148.824 344.895 141.311C344.895 133.885 346.536 127.366 349.817 121.753C353.098 116.054 357.588 111.693 363.288 108.671C368.987 105.649 375.377 104.138 382.457 104.138C389.538 104.138 395.928 105.649 401.627 108.671C407.326 111.693 411.816 116.054 415.098 121.753C418.379 127.366 420.02 133.885 420.02 141.311C420.02 148.738 418.336 155.3 414.968 160.999C411.687 166.612 407.153 170.93 401.368 173.952C395.669 176.974 389.279 178.485 382.198 178.485ZM382.198 159.315C386.429 159.315 390.013 157.761 392.949 154.653C395.971 151.544 397.482 147.097 397.482 141.311C397.482 135.526 396.014 131.079 393.078 127.97C390.229 124.862 386.688 123.307 382.457 123.307C378.14 123.307 374.556 124.862 371.707 127.97C368.857 130.993 367.432 135.44 367.432 141.311C367.432 147.097 368.814 151.544 371.577 154.653C374.427 157.761 377.967 159.315 382.198 159.315ZM453.919 117.22C456.509 113.248 459.747 110.139 463.633 107.894C467.519 105.563 471.836 104.397 476.586 104.397V127.841H470.498C464.972 127.841 460.827 129.05 458.064 131.468C455.3 133.799 453.919 137.944 453.919 143.902V177.449H431.77V105.174H453.919V117.22ZM498.311 97.6615C494.426 97.6615 491.231 96.539 488.727 94.2939C486.309 91.9624 485.1 89.1129 485.1 85.7452C485.1 82.2912 486.309 79.4416 488.727 77.1965C491.231 74.8651 494.426 73.6994 498.311 73.6994C502.111 73.6994 505.219 74.8651 507.637 77.1965C510.141 79.4416 511.393 82.2912 511.393 85.7452C511.393 89.1129 510.141 91.9624 507.637 94.2939C505.219 96.539 502.111 97.6615 498.311 97.6615ZM509.321 105.174V177.449H487.172V105.174H509.321Z" fill="white"/>
<path d="M551.504 35.449L684.438 185.425" stroke="#D4FF6B" stroke-width="38.1758" stroke-linecap="square"/>
<path d="M703.526 0H670.804V32.7221H703.526V0Z" fill="#D4FF6B"/>
<path d="M657.169 66.126L575.364 185.425" stroke="#D4FF6B" stroke-width="38.1758" stroke-linecap="square"/>
</svg>
